<svg width="80" height="81" viewBox="0 0 80 81" fill="none" xmlns="http://www.w3.org/2000/svg">
<rect y="0.291748" width="80" height="80" rx="10" fill="#383E45"/>
<path d="M24.853 57.0932L21.484 19.2917H58.516L55.1425 57.0872L39.9775 61.2917L24.853 57.0932Z" fill="#1572B6"/>
<path d="M40 58.0787L52.255 54.6812L55.138 22.3832H40V58.0787Z" fill="#33A9DC"/>
<path d="M40 36.0783H46.135L46.558 31.3308H40V26.6943H51.625L51.514 27.9378L50.3755 40.7148H40V36.0783Z" fill="white"/>
<path d="M40.0285 48.1187L40.0075 48.1247L34.8445 46.7297L34.5145 43.0322H29.86L30.5095 50.3117L40.006 52.9487L40.0285 52.9427V48.1187Z" fill="#EBEBEB"/>
<path d="M45.7405 40.5182L45.1825 46.7268L40.012 48.1217V52.9458L49.516 50.3118L49.5865 49.5288L50.392 40.5182H45.7405Z" fill="white"/>
<path d="M40.0165 26.6943V31.3308H28.8175L28.7245 30.2883L28.513 27.9378L28.402 26.6943H40.0165ZM40 36.0783V40.7148H34.9015L34.8085 39.6723L34.5985 37.3218L34.4875 36.0783H40Z" fill="#EBEBEB"/>
</svg>
