<svg width="80" height="81" viewBox="0 0 80 81" fill="none" xmlns="http://www.w3.org/2000/svg">
<rect y="0.291748" width="80" height="80" rx="10" fill="#383E45"/>
<path d="M24.853 57.0932L21.4825 19.2917H58.5175L55.1425 57.0872L39.9775 61.2917L24.853 57.0932Z" fill="#E44F26"/>
<path d="M40 58.0787L52.255 54.6812L55.138 22.3832H40V58.0787Z" fill="#F1662A"/>
<path d="M40 36.4022H33.865L33.442 31.6547H40V27.0182H28.375L28.486 28.2632L29.6245 41.0387H40V36.4022ZM40 48.4428L39.979 48.4488L34.816 47.0553L34.486 43.3578H29.8315L30.481 50.6358L39.979 53.2727L40 53.2668V48.4428Z" fill="#EBEBEB"/>
<path d="M39.9835 36.4022V41.0387H45.6925L45.1555 47.0523L39.9835 48.4473V53.2712L49.489 50.6358L49.558 49.8528L50.647 37.6473L50.761 36.4022H39.9835ZM39.9835 27.0182V31.6547H51.1825L51.2755 30.6138L51.487 28.2632L51.598 27.0182H39.9835Z" fill="white"/>
</svg>
