<svg width="80" height="81" viewBox="0 0 80 81" fill="none" xmlns="http://www.w3.org/2000/svg">
<rect y="0.291748" width="80" height="80" rx="10" fill="#383E45"/>
<g clip-path="url(#clip0_6_167)">
<path d="M16 16.2917H64V64.2917H16V16.2917Z" fill="#F7DF1E"/>
<path d="M28.621 56.404L32.2942 54.181C33.0029 55.4374 33.6475 56.5006 35.1938 56.5006C36.676 56.5006 37.6107 55.9208 37.6107 53.6656V38.3284H42.1214V53.7293C42.1214 58.4012 39.3828 60.5279 35.3872 60.5279C31.7787 60.5279 29.6842 58.6591 28.6208 56.4036L28.621 56.404ZM44.5715 55.9206L48.2442 53.7942C49.2112 55.3731 50.4678 56.533 52.6908 56.533C54.56 56.533 55.7517 55.5985 55.7517 54.3096C55.7517 52.7631 54.5273 52.2152 52.4652 51.3134L51.3378 50.8296C48.0833 49.4446 45.9247 47.7046 45.9247 44.0314C45.9247 40.6482 48.5022 38.0704 52.5299 38.0704C55.3975 38.0704 57.4597 39.0694 58.9417 41.6792L55.4294 43.9349C54.656 42.5494 53.8186 42.0017 52.5297 42.0017C51.2086 42.0017 50.3708 42.8395 50.3708 43.9349C50.3708 45.2881 51.2086 45.8361 53.1417 46.6739L54.2693 47.1571C58.1037 48.8005 60.2624 50.4758 60.2624 54.2453C60.2624 58.3054 57.0727 60.5284 52.7873 60.5284C48.5988 60.5284 45.8922 58.5308 44.5713 55.9208" fill="black"/>
</g>
<defs>
<clipPath id="clip0_6_167">
<rect width="48" height="48" fill="white" transform="translate(16 16.2917)"/>
</clipPath>
</defs>
</svg>
